<?xml version="1.0" encoding="iso-8859-1"?>
<!-- Generator: Adobe Illustrator 19.0.0, SVG Export Plug-In . SVG Version: 6.00 Build 0)  -->
<svg version="1.1" id="Capa_1" xmlns="http://www.w3.org/2000/svg" xmlns:xlink="http://www.w3.org/1999/xlink" x="0px" y="0px"
	 viewBox="0 0 512 512" style="enable-background:new 0 0 512 512;" xml:space="preserve">
<path style="fill:#DCE4EC;" d="M256,0L256,0l-20.016,256L256,512l0,0c141.385,0,256-114.615,256-256l0,0
	C512,114.615,397.385,0,256,0z"/>
<path style="fill:#F7F7F8;" d="M256,0C114.615,0,0,114.615,0,256l0,0c0,141.385,114.615,256,256,256l0,0V0L256,0z"/>
<polygon style="fill:#009E2A;" points="307.266,204.734 307.266,110.922 256,110.922 235.984,255.192 256,401.078 307.266,401.078 
	307.266,307.266 401.078,307.266 401.078,204.734 "/>
<polygon style="fill:#00DC3B;" points="204.734,110.922 204.734,204.734 110.922,204.734 110.922,307.266 204.734,307.266 
	204.734,401.078 256,401.078 256,110.922 "/>
<g>
</g>
<g>
</g>
<g>
</g>
<g>
</g>
<g>
</g>
<g>
</g>
<g>
</g>
<g>
</g>
<g>
</g>
<g>
</g>
<g>
</g>
<g>
</g>
<g>
</g>
<g>
</g>
<g>
</g>
</svg>
